<svg width="410" height="445" viewBox="0 0 410 445" fill="none" xmlns="http://www.w3.org/2000/svg">
<path d="M343.921 44.5989C378.116 61.2428 409.286 88.1758 409.589 119.951C410.194 151.726 380.235 188.342 372.669 226.775C364.801 265.51 379.024 305.455 371.761 342.677C364.196 379.899 335.145 414.398 297.015 431.042C258.885 447.685 212.282 447.08 166.587 436.489C120.589 425.897 75.8015 405.622 44.0266 372.334C12.5544 339.046 -6.2079 292.443 2.56801 251.589C11.6465 210.736 48.2633 175.33 67.0256 130.845C85.7878 86.6627 86.9983 33.0994 112.116 12.2188C137.233 -8.66182 186.257 2.53504 229.531 11.6136C272.503 20.6921 310.027 27.6523 343.921 44.5989Z" fill="#ECE4DA" fill-opacity="0.5"/>
</svg>
